HIERARCHY
ROOT Hips
{
	OFFSET 0.00000 0.00000 0.00000
	CHANNELS 6 Xposition Yposition Zposition Yrotation Zrotation Xrotation 
	JOINT Lumbar
	{
		OFFSET 0 0 0
		CHANNELS 3 Zrotation Xrotation Yrotation
		JOINT Neck
		{
			OFFSET 0.00 0.2701 0.00
			CHANNELS 3 Zrotation Xrotation Yrotation
			End Site
			{
				OFFSET 0.00 0.1379 0.00
			}
		}
		JOINT RightShoulder
		{
			OFFSET 0.0119 0.2289 0.1181
			CHANNELS 3 Zrotation Xrotation Yrotation
			JOINT RightElbow
			{
				OFFSET 0.00 -0.1475 0.00
				CHANNELS 2 Zrotation Yrotation
				JOINT RightWrist
				{
					OFFSET 0.00 -0.1605 0.00
					CHANNELS 2 Zrotation Xrotation
					End Site
					{
						OFFSET 0.0040 -0.1068 0.0006
					}
				}
			}
		}
		JOINT LeftShoulder
		{
			OFFSET 0.0119 0.2289 -0.1181
			CHANNELS 3 Zrotation Xrotation Yrotation
			JOINT LeftElbow
			{
				OFFSET 0.00 -0.1475 0.00
				CHANNELS 2 Zrotation Yrotation
				JOINT LeftWrist
				{
					OFFSET 0.00 -0.1605 0.00
					CHANNELS 2 Zrotation Xrotation
					End Site
					{
						OFFSET 0.0040 -0.1068 -0.0006
					}
				}
			}
		}
	}
	JOINT RightHip
	{
		OFFSET 0.0316 -0.0424 0.0458
		CHANNELS 3 Zrotation Xrotation Yrotation
		JOINT RightKnee
		{
			OFFSET 0.00 -0.2438 0.00
			CHANNELS 1 Zrotation
			JOINT RightAnkle
			{
				OFFSET 0.00 -0.2449 0.00
				CHANNELS 3 Zrotation Xrotation Yrotation
				End Site
				{
					OFFSET 0.1237 -0.0542 0.0051
				}
			}
		}
	}
	JOINT LeftHip
	{
		OFFSET 0.0316 -0.0424 -0.0458
		CHANNELS 3 Zrotation Xrotation Yrotation
		JOINT LeftKnee
		{
			OFFSET 0.00 -0.2438 0.00
			CHANNELS 1 Zrotation
			JOINT LeftAnkle
			{
				OFFSET 0.00 -0.2449 0.00
				CHANNELS 3 Zrotation Xrotation Yrotation
				End Site
				{
					OFFSET 0.1237 -0.0542 -0.0051
				}
			}
		}
	}
}
MOTION
Frames: 10
Frame Time: 0.02
1.67924 -0.01133 -0.5018 757.34558 -37.39339 16.70949 9.44557 10.73733 -22.62593 19.39339 5.05444 -2.11994 93.28078 -14.19704 45.74582 56.49559 89.60441 -6.36525 -9.94071 51.96017 2.62386 -22.80927 56.15886 -95.95386 -14.21502 9.61478 33.47328 -9.4789 -17.21185 -109.79323 -5.90813 -2.83135 -3.57453 122.2469 22.98644 13.68189 -139.96961 -5.80036 0.79717 2.60426
1.67895 -0.01156 -0.50214 757.13135 -37.30434 16.8054 9.24228 10.63648 -22.22096 19.41914 5.42218 -2.11994 94.39598 -12.00693 44.56073 57.33632 92.93488 -9.4441 -9.68196 51.98018 2.403 -22.61526 56.64065 -97.25651 -15.29798 9.35076 33.42785 -9.53123 -16.89568 -109.9198 -5.88713 -2.8635 -3.59193 122.10602 22.80114 13.82989 -140.04395 -5.79953 0.89485 2.64814
1.67819 -0.01208 -0.50243 756.99145 -37.30003 16.92249 8.94727 10.59699 -21.69773 19.52153 5.91035 -2.11994 95.74538 -10.02238 42.87829 57.56541 97.9747 -13.86384 -9.2855 52.30636 2.07944 -22.4765 57.1083 -99.3339 -16.89691 8.9137 33.49718 -9.7329 -16.73604 -110.19809 -5.85385 -2.90445 -3.61356 122.12031 22.92449 14.18603 -140.13863 -5.75953 0.91727 2.65786
1.67762 -0.01249 -0.50274 756.82513 -37.26535 17.03205 8.69404 10.53626 -21.22784 19.59386 6.34148 -2.11994 96.9596 -7.99023 41.39962 58.05913 102.07666 -17.56215 -8.96141 52.50331 1.80197 -22.31393 57.57772 -101.01627 -18.23324 8.57098 33.52901 -9.85771 -16.49883 -110.41269 -5.82689 -2.94069 -3.63273 122.07512 22.92477 14.45773 -140.22312 -5.72724 0.95923 2.67638
1.67712 -0.01283 -0.50309 756.62615 -37.19758 17.13468 8.4379 10.44617 -20.75249 19.6471 6.78529 -2.11994 98.30508 -5.74451 40.00104 58.60951 106.85173 -21.73957 -8.59806 52.66778 1.52024 -22.14394 58.06114 -102.90012 -19.70524 8.16789 33.50363 -10.01443 -16.27877 -110.60773 -5.79691 -2.98024 -3.65429 121.98074 22.84856 14.69233 -140.31119 -5.70205 1.01666 2.70206
1.67638 -0.01336 -0.50333 756.51495 -37.21816 17.25651 8.16763 10.433 -20.26503 19.75749 7.22921 -2.11994 99.42497 -4.00544 38.32812 58.89649 110.63706 -25.23468 -8.28319 52.96782 1.2267 -22.00397 58.51422 -104.54161 -21.01087 7.84696 33.62244 -10.14381 -16.06593 -110.8783 -5.77028 -3.01483 -3.67184 122.0261 23.00597 15.05104 -140.39666 -5.65552 1.03484 2.70949
1.67508 -0.01437 -0.50324 756.60941 -37.46465 17.42026 7.87311 10.60851 -19.75 20.01196 7.65571 -2.11994 99.91454 -3.5518 35.95526 58.60328 111.22688 -26.525 -8.13356 53.58247 0.91176 -21.9249 58.88601 -105.31287 -21.72905 7.79821 34.11702 -10.14383 -15.81042 -111.32283 -5.75577 -3.03406 -3.67731 122.42627 23.73861 15.70599 -140.47121 -5.69505 1.04506 2.71468
1.67357 -0.01555 -0.50304 756.79297 -37.79657 17.60331 7.56931 10.86089 -19.23169 20.32016 8.0757 -2.11994 100.15934 -3.61544 33.33753 58.06531 110.77176 -27.08116 -8.03772 54.31915 0.59173 -21.87594 59.22807 -105.81392 -22.26032 7.83697 34.75122 -10.11442 -15.56202 -111.83711 -5.74507 -3.04792 -3.67859 122.9607 24.69477 16.47678 -140.54207 -5.69676 1.00777 2.69753
1.67216 -0.01664 -0.50289 756.94807 -38.08739 17.78107 7.27495 11.08402 -18.731 20.60056 8.49068 -2.11994 100.4822 -3.48498 30.87376 57.64245 110.82253 -27.96668 -7.91829 54.98872 0.28413 -21.81885 59.5861 -106.44136 -22.87533 7.83264 35.31698 -10.1113 -15.32791 -112.31776 -5.73266 -3.06381 -3.68171 123.42986 25.5462 17.19125 -140.61416 -5.63292 0.95011 2.66975
1.67071 -0.01779 -0.50273 757.05551 -38.39044 17.94507 6.95498 11.28581 -18.15884 20.89844 8.9435 -2.11994 100.95174 -3.18577 28.20821 57.18671 110.79585 -28.9134 -7.78994 55.71779 -0.06928 -21.73998 59.93602 -107.07544 -23.51196 7.8355 35.90733 -10.06139 -15.02679 -112.81284 -5.71967 -3.08152 -3.68514 123.92317 26.42373 17.92981 -140.68972 -5.91308 1.07854 2.7334
